<?xml version="1.0" encoding="UTF-8"?>
<svg version="1.1" xmlns="http://www.w3.org/2000/svg" width="1448" height="350">
<path d="M0 0 C2.46784678 0.01611057 4.93405694 0.00001905 7.40185547 -0.01904297 C21.50184766 -0.03853911 35.7238593 1.306688 49.09326172 6.07861328 C49.82496582 6.33280029 50.55666992 6.5869873 51.31054688 6.84887695 C77.75032036 16.36161475 97.98434806 33.66635083 110.10888672 59.16455078 C123.23667517 88.08044327 123.58559057 124.5846085 112.96826172 154.39111328 C102.75992427 179.35993438 84.20750439 199.36646359 59.28125 209.94799805 C41.51293206 217.10667339 24.24052091 219.75658914 5.23828125 219.70678711 C2.73506735 219.70363445 0.23304891 219.72716037 -2.27001953 219.75244141 C-16.36028188 219.80837539 -30.58115802 218.53188928 -43.96923828 213.82861328 C-44.69248291 213.57958252 -45.41572754 213.33055176 -46.16088867 213.07397461 C-59.7441553 208.16174577 -72.46320072 201.28892033 -83.03173828 191.39111328 C-83.73169922 190.76978516 -84.43166016 190.14845703 -85.15283203 189.50830078 C-102.87739041 172.99302027 -113.29940451 146.93576912 -114.15454102 122.94604492 C-114.23907863 118.78109018 -114.27833069 114.619303 -114.28173828 110.45361328 C-114.28241302 109.71467834 -114.28308777 108.97574341 -114.28378296 108.2144165 C-114.26796944 97.32495867 -113.90065856 86.96081957 -111.03173828 76.39111328 C-110.70302734 75.15619141 -110.37431641 73.92126953 -110.03564453 72.64892578 C-105.63712614 58.00749086 -98.43226749 44.63039484 -88.03173828 33.39111328 C-87.37431641 32.66537109 -86.71689453 31.93962891 -86.03955078 31.19189453 C-74.81618224 19.3600301 -59.40635008 11.28007554 -44.09423828 6.01611328 C-43.45292969 5.78980225 -42.81162109 5.56349121 -42.15087891 5.33032227 C-28.48397431 0.93479486 -14.25567576 -0.11011514 0 0 Z M-50.07470703 75.92626953 C-59.85732563 90.08916512 -60.96511751 106.92727788 -58.734375 123.61572266 C-56.40879719 136.29841617 -49.15402102 147.27675546 -38.93017578 154.97314453 C-26.96876025 162.87407954 -13.69521629 165.22680709 0.35986328 164.98803711 C2.60039101 164.9535034 4.83699203 164.96752576 7.07763672 164.98681641 C23.58552915 164.9715396 38.29808502 160.67266744 50.78076172 149.32861328 C60.87987571 138.47802256 64.65310198 124.38446785 65.34326172 109.89111328 C64.65310198 95.39775872 60.87987571 81.304204 50.78076172 70.45361328 C37.47633469 58.36276575 22.11034872 54.67359333 4.67260742 54.86962891 C2.40354047 54.89113433 0.13762602 54.86967466 -2.13134766 54.84423828 C-20.98268641 54.80902846 -37.98635662 60.92562055 -50.07470703 75.92626953 Z " fill="#000000" transform="translate(379.03173828125,65.60888671875)"/>
<path d="M0 0 C58.08 0 116.16 0 176 0 C176 51 176 51 163 66 C159.4920584 70.08657114 155.98512855 74.17382766 152.48388672 78.26611328 C149.99104476 81.17894046 147.49537234 84.08934061 145 87 C143.9999866 88.16665518 142.99998659 89.33332184 142 90.5 C112 125.5 112 125.5 110.49975586 127.25024414 C109.50051604 128.41605104 108.50132977 129.58190386 107.50219727 130.74780273 C104.99100539 133.67800398 102.47886607 136.60738291 99.96484375 139.53515625 C99.45759766 140.12619141 98.95035156 140.71722656 98.42773438 141.32617188 C97.49320452 142.41502776 96.55835785 143.50361189 95.62304688 144.59179688 C90.38198119 150.70003453 85.19933777 156.85532809 80 163 C125.54 163.495 125.54 163.495 172 164 C172 182.15 172 200.3 172 219 C113.92 219 55.84 219 -4 219 C-4 168 -4 168 8 154 C12.11256174 149.1397149 12.11256174 149.1397149 16.22265625 144.27734375 C21.6204896 137.89843455 27.0763133 131.56881438 32.52050781 125.22949219 C37.86686105 119.00296761 43.2047783 112.7701061 48.5 106.5 C54.79908406 99.04121402 61.15994771 91.63584766 67.52050781 84.22949219 C73.0683645 77.7682906 78.60982706 71.30163875 84.125 64.8125 C84.58656494 64.27165771 85.04812988 63.73081543 85.52368164 63.17358398 C87.49903956 60.84414195 89.30286137 58.54570795 91 56 C60.97 55.67 30.94 55.34 0 55 C0 36.85 0 18.7 0 0 Z " fill="#000000" transform="translate(981,66)"/>
<path d="M0 0 C1.85757093 0.00561462 3.71514638 0.00987585 5.57272339 0.01286316 C10.39606602 0.0241654 15.21912551 0.05350137 20.0423584 0.0869751 C25.86467133 0.12347749 31.68708043 0.13690696 37.50947571 0.15433502 C46.29557488 0.18315168 55.08105624 0.24073944 63.8671875 0.29296875 C63.8671875 18.44296875 63.8671875 36.59296875 63.8671875 55.29296875 C55.23175781 55.33164063 55.23175781 55.33164063 46.421875 55.37109375 C42.74865501 55.39629568 39.07551464 55.42265429 35.40234375 55.453125 C29.58740057 55.50125428 23.77264199 55.54537556 17.95751953 55.56396484 C13.26290908 55.57924229 8.56878555 55.61388102 3.87439346 55.66127777 C2.09413032 55.67597825 0.31379761 55.68400316 -1.46652603 55.6848526 C-18.76665092 55.70139008 -34.74780849 58.3029705 -48.0078125 70.60546875 C-58.27174696 81.79566071 -61.30725718 94.68468219 -61.3828125 109.41796875 C-61.4034375 110.40023437 -61.4240625 111.3825 -61.4453125 112.39453125 C-61.52134731 126.84114536 -56.68318289 139.4781611 -46.703125 149.96875 C-32.90843055 162.44267583 -16.46742651 163.89392758 1.171875 163.90234375 C2.99034064 163.91735968 4.80879283 163.93409386 6.62722778 163.95245361 C11.36501769 163.99575673 16.10262378 164.01604308 20.84057617 164.03118896 C26.55117024 164.05437249 32.26156531 164.10675824 37.97200012 164.15412903 C46.60378053 164.22252455 55.23499243 164.25431136 63.8671875 164.29296875 C63.8671875 182.44296875 63.8671875 200.59296875 63.8671875 219.29296875 C43.62560839 219.41329518 43.62560839 219.41329518 34.88671875 219.43945312 C28.96231864 219.45727164 23.03805977 219.47817193 17.11376953 219.51928711 C12.32858627 219.55228263 7.54355484 219.5699049 2.75826645 219.57760048 C0.94774872 219.58307287 -0.86276228 219.5937548 -2.67321396 219.61015892 C-17.68858752 219.74059215 -32.77335897 218.75303488 -47.0703125 213.73046875 C-47.79355713 213.48143799 -48.51680176 213.23240723 -49.26196289 212.97583008 C-62.84522952 208.06360124 -75.56427494 201.1907758 -86.1328125 191.29296875 C-86.83277344 190.67164063 -87.53273438 190.0503125 -88.25390625 189.41015625 C-100.15284194 178.32303878 -108.3033173 163.17819112 -112.9453125 147.73046875 C-113.1402832 147.08303711 -113.33525391 146.43560547 -113.53613281 145.76855469 C-116.82635763 134.00614602 -117.50859923 122.1811907 -117.4453125 110.04296875 C-117.44348969 109.31652161 -117.44166687 108.59007446 -117.43978882 107.84161377 C-117.31342842 77.92589126 -108.59413652 51.53654024 -87.8203125 29.54296875 C-63.88427486 6.6530866 -32.08146113 -0.29068326 0 0 Z " fill="#000000" transform="translate(164.1328125,65.70703125)"/>
<path d="M0 0 C7.45806861 -0.20896154 14.91550198 -0.36865359 22.37590981 -0.46630955 C25.84069146 -0.51319394 29.3034645 -0.57671652 32.76708984 -0.67895508 C36.75333183 -0.7958773 40.73877429 -0.83919763 44.7265625 -0.87890625 C45.96427399 -0.92535782 47.20198547 -0.97180939 48.47720337 -1.01966858 C56.87019269 -1.02458383 56.87019269 -1.02458383 60.02813721 1.83924866 C61.6065496 4.15855567 62.82590366 6.4549769 64 9 C64.95422852 10.63497437 64.95422852 10.63497437 65.92773438 12.30297852 C66.47751953 13.31803467 67.02730469 14.33309082 67.59375 15.37890625 C68.54036499 17.11442749 68.54036499 17.11442749 69.50610352 18.88500977 C69.9937468 19.78475021 69.9937468 19.78475021 70.49124146 20.70266724 C77.53697648 33.69278158 84.83794608 46.51497287 92.37548828 59.22705078 C93.56431871 61.25631679 94.7316022 63.29824828 95.88623047 65.34716797 C96.51029785 66.44818848 97.13436523 67.54920898 97.77734375 68.68359375 C98.34573975 69.6986499 98.91413574 70.71370605 99.49975586 71.75952148 C99.99483643 72.49887939 100.48991699 73.2382373 101 74 C101.66 74 102.32 74 103 74 C103.3810791 73.30777344 103.7621582 72.61554688 104.15478516 71.90234375 C111.50087213 58.57535238 118.89697096 45.29005044 126.63916016 32.1875 C132.91373876 21.54020754 138.91405761 10.76743654 145 0 C164.14 0 183.28 0 203 0 C202.19043116 4.04784421 201.65083157 6.01930835 199.734375 9.421875 C199.26322266 10.26943359 198.79207031 11.11699219 198.30664062 11.99023438 C197.79294922 12.90095703 197.27925781 13.81167969 196.75 14.75 C192.20414421 22.93692725 187.79004855 31.17617976 183.5 39.5 C179.44829313 47.34585685 175.32101651 55.13945006 171.0625 62.875 C166.58017026 71.01928612 162.25767041 79.23613767 158 87.5 C153.2324481 96.75227183 148.37440097 105.94349825 143.34570312 115.05664062 C142.4569599 116.66887028 141.57874514 118.28694909 140.71121216 119.91069031 C139.4493694 122.1887381 138.14877431 124.38403758 136.77572632 126.59223938 C130.19495457 137.53987071 128.70596832 146.32082983 128.90234375 158.94140625 C128.89667245 160.68832565 128.88703751 162.43523616 128.87367249 164.18211365 C128.84934978 168.7183387 128.87783992 173.25265021 128.91845703 177.78869629 C128.95604619 183.26394248 128.92605802 188.73921043 128.90778351 194.21450043 C128.88757741 202.47746907 128.9516265 210.73587132 129 219 C110.85 219 92.7 219 74 219 C74.13664063 213.61945313 74.27328125 208.23890625 74.4140625 202.6953125 C74.46065338 199.20390865 74.50163896 195.71409227 74.5234375 192.22265625 C74.55824978 186.72745248 74.6093174 181.2373682 74.78515625 175.74462891 C75.59855329 149.33947111 71.56221176 131.16556223 57.35137939 108.80828857 C53.694047 102.99351023 50.58639089 96.87515947 47.42877388 90.77978516 C45.71239669 87.48167566 43.95974985 84.20286365 42.2109375 80.921875 C41.50864402 79.60098856 40.80647841 78.28003413 40.10449219 76.95898438 C39.4029988 75.63932079 38.7015014 74.31965933 38 73 C35.53866713 68.36975854 33.07750632 63.73942577 30.61679077 59.1088562 C29.91749999 57.79300255 29.21813954 56.47718592 28.51870728 55.16140747 C24.34771176 47.31459475 20.18565255 39.46314543 16.03515625 31.60546875 C15.20695805 30.03824438 14.37875174 28.47102429 13.55053711 26.90380859 C11.96514718 23.90365649 10.38160434 20.90253926 8.79907227 17.90087891 C8.07705105 16.53414515 7.35496769 15.16744422 6.6328125 13.80078125 C6.30857803 13.18454391 5.98434357 12.56830658 5.65028381 11.93339539 C4.25951476 9.30455095 2.83468823 6.7319818 1.27294922 4.19995117 C0 2 0 2 0 0 Z " fill="#000000" transform="translate(721,66)"/>
<path d="M0 0 C18.15 0 36.3 0 55 0 C55 54.12 55 108.24 55 164 C93.94 164 132.88 164 173 164 C173 182.15 173 200.3 173 219 C115.91 219 58.82 219 0 219 C0 146.73 0 74.46 0 0 Z " fill="#000000" transform="translate(559,66)"/>
<path d="M0 0 C57.42 0 114.84 0 174 0 C174 18.15 174 36.3 174 55 C116.58 55 59.16 55 0 55 C0 36.85 0 18.7 0 0 Z " fill="#000000" transform="translate(1228,230)"/>
<path d="M0 0 C57.42 0 114.84 0 174 0 C174 18.15 174 36.3 174 55 C116.58 55 59.16 55 0 55 C0 36.85 0 18.7 0 0 Z " fill="#000000" transform="translate(1228,148)"/>
<path d="M0 0 C57.42 0 114.84 0 174 0 C174 18.15 174 36.3 174 55 C116.58 55 59.16 55 0 55 C0 36.85 0 18.7 0 0 Z " fill="#000000" transform="translate(1228,66)"/>
</svg>
